# https://github.com/mikedh/trimesh
v 0.05662901 0.10885218 -0.19665875
v 0.02995411 0.10712276 -0.19296134
v 0.03661628 0.10712276 -0.19296834
v 0.06329118 0.10707897 -0.19300343
v 0.06995335 0.10878651 -0.19665875
v 0.10342157 0.10834868 -0.20164011
v -0.11663983 0.10848002 -0.20161204
v -0.08996492 0.10880840 -0.19665875
v -0.06329002 0.10707897 -0.19299642
v -0.16453400 0.07181171 -0.13031557
v 0.06995335 0.10703518 -0.19302448
v 0.08327769 0.10692573 -0.19310166
v 0.10342157 0.10841435 -0.19665174
v 0.10342157 0.10841435 -0.19672191
v 0.10342157 0.10331362 -0.20180850
v -0.14331473 0.10331362 -0.20199091
v -0.14331473 0.10834868 -0.20169625
v -0.13662633 0.10841435 -0.20166116
v -0.12999039 0.10845814 -0.20162609
v -0.09662709 0.10878651 -0.19665875
v -0.08330275 0.10703518 -0.19302448
v -0.16298648 0.07027929 -0.13031557
v 0.10342157 0.04996395 -0.15619054
v 0.10342157 0.05007341 -0.15620457
v 0.10342157 0.05664087 -0.15767792
v 0.10342157 0.06053756 -0.15959330
v 0.10342157 0.10675060 -0.19325601
v 0.10331665 0.10675060 -0.19324899
v -0.09662709 0.10696951 -0.19306657
v -0.12999039 0.10675060 -0.19322793
v -0.13513128 0.10670681 -0.19326302
v -0.13959020 0.10664114 -0.19334722
v -0.14331473 0.10834868 -0.19683416
v -0.14648844 0.10821732 -0.19713585
v -0.14997690 0.10804219 -0.19747262
v -0.15398993 0.10736356 -0.19864428
v -0.16453400 0.07181171 -0.14334426
v -0.16453400 0.05620304 -0.13031557
v 0.10342157 0.02062930 -0.16479915
v 0.10208389 -0.09784769 -0.16508681
v -0.01594665 -0.10332057 -0.16524818
v -0.02336946 -0.10332057 -0.16526922
v -0.14995066 -0.10332057 -0.16543761
v -0.14997690 0.10331362 -0.20182955
v -0.14648844 0.10821732 -0.20156293
v -0.12999039 0.10856760 -0.19665875
v -0.14997690 0.10804219 -0.20142262
v -0.11663983 0.10867705 -0.19665875
v -0.15970786 0.06692989 -0.13031557
v 0.10208389 -0.09784769 -0.15400155
v 0.10342157 0.02340952 -0.15631683
v -0.15317683 0.06014352 -0.13031557
v -0.15071131 0.05666276 -0.13031557
v -0.14824578 0.05031422 -0.13031557
v -0.14814086 0.04998584 -0.13031557
v -0.13707222 0.10808598 -0.19599926
v -0.15398993 0.10736356 -0.20074909
v -0.16453400 0.07176792 -0.15000945
v -0.16453400 0.05615926 -0.15000945
v -0.16254059 -0.10332057 -0.15165820
v -0.16125537 0.02062930 -0.13031557
v 0.10342157 0.02062930 -0.15633086
v -0.01594665 -0.11452904 -0.15165820
v -0.01594665 -0.11450715 -0.15590990
v -0.01594665 -0.11446337 -0.15667464
v -0.01594665 -0.11385040 -0.16094036
v -0.01594665 -0.10997560 -0.16358539
v -0.02336946 -0.10997560 -0.16359942
v -0.14995066 -0.10997560 -0.16370466
v -0.15663906 -0.10332057 -0.16432909
v -0.08993869 -0.10997560 -0.16368362
v -0.12327576 -0.10997560 -0.16371869
v -0.12996416 -0.10997560 -0.16371869
v -0.15359650 0.09961395 -0.20025797
v -0.15404239 0.10331362 -0.20075610
v -0.14785235 0.04333082 -0.13031557
v -0.14774743 0.02073875 -0.13031557
v -0.14774743 0.02062930 -0.13031557
v -0.16453400 0.06572586 -0.16157180
v -0.16453400 0.06872500 -0.16121398
v -0.16453400 0.07111117 -0.15776913
v -0.16453400 0.07124252 -0.15702543
v -0.16453400 0.07135198 -0.15610634
v -0.16453400 0.07168036 -0.15204408
v -0.16453400 0.05615926 -0.15011469
v -0.16125537 -0.10969101 -0.15165820
v -0.16453400 0.05646574 -0.15667464
v -0.16453400 0.05650952 -0.15698334
v -0.16453400 0.05821706 -0.16084213
v -0.16453400 0.05883002 -0.16116487
v -0.16233076 -0.10332057 -0.15667464
v -0.16115046 -0.10958155 -0.15667464
v -0.15997014 -0.11223043 -0.15165820
v -0.15952425 -0.11301852 -0.15165820
v -0.15868492 -0.11330311 -0.15165820
v -0.15619317 -0.11406932 -0.15165820
v -0.15147195 -0.11461661 -0.15165820
v -0.14995066 -0.11479174 -0.15165820
v -0.09660086 -0.11472607 -0.15165820
v -0.08332898 -0.11461661 -0.15667464
v -0.09660086 -0.11463850 -0.15667464
v -0.08332898 -0.11391608 -0.16103157
v -0.14995066 -0.11391608 -0.16105262
v -0.15496041 -0.11374094 -0.16071585
v -0.15698004 -0.11041343 -0.16212606
v -0.12996416 -0.11391608 -0.16107366
v -0.16065210 -0.10848697 -0.16103859
v -0.08993869 -0.11391608 -0.16103859
v -0.12327576 -0.11391608 -0.16107366
v -0.16101930 -0.10332057 -0.16158583
v -0.15939311 -0.11290907 -0.15667464
v -0.15606202 -0.11400365 -0.15667464
v -0.14995066 -0.11468228 -0.15667464
f 1 2 3
f 1 3 4
f 1 4 5
f 1 5 6
f 1 6 7
f 1 7 8
f 1 8 2
f 2 8 9
f 2 9 10
f 2 10 3
f 3 10 4
f 4 11 5
f 4 10 11
f 5 11 12
f 5 12 13
f 5 13 14
f 5 14 6
f 6 14 13
f 6 13 27
f 6 27 26
f 6 26 25
f 6 25 24
f 6 24 23
f 6 23 51
f 6 51 62
f 6 62 39
f 6 39 15
f 6 15 16
f 6 16 17
f 6 17 18
f 6 18 7
f 7 18 19
f 7 19 8
f 8 19 20
f 8 20 21
f 8 21 9
f 9 21 10
f 10 22 23
f 10 23 24
f 10 24 25
f 10 25 26
f 10 26 27
f 10 27 28
f 10 28 12
f 10 12 11
f 10 21 29
f 10 29 30
f 10 30 31
f 10 31 32
f 10 32 33
f 10 33 34
f 10 34 35
f 10 35 36
f 10 36 57
f 10 57 37
f 10 37 58
f 10 58 84
f 10 84 83
f 10 83 82
f 10 82 81
f 10 81 80
f 10 80 79
f 10 79 90
f 10 90 89
f 10 89 88
f 10 88 87
f 10 87 85
f 10 85 59
f 10 59 38
f 10 38 61
f 10 61 78
f 10 78 77
f 10 77 76
f 10 76 55
f 10 55 54
f 10 54 53
f 10 53 52
f 10 52 49
f 10 49 22
f 12 28 13
f 13 28 27
f 15 39 40
f 15 40 41
f 15 41 42
f 15 42 43
f 15 43 16
f 16 43 44
f 16 44 17
f 17 45 34
f 17 34 33
f 17 33 46
f 17 46 18
f 17 44 47
f 17 47 45
f 18 46 48
f 18 48 19
f 19 48 20
f 20 48 21
f 21 48 29
f 22 49 23
f 23 50 51
f 23 49 52
f 23 52 53
f 23 53 54
f 23 54 55
f 23 55 50
f 29 48 46
f 29 46 30
f 30 46 31
f 31 46 56
f 31 56 32
f 32 56 33
f 33 56 46
f 34 45 47
f 34 47 35
f 35 47 57
f 35 57 36
f 37 57 58
f 38 59 60
f 38 60 61
f 39 62 50
f 39 50 40
f 40 50 63
f 40 63 64
f 40 64 65
f 40 65 66
f 40 66 67
f 40 67 41
f 41 67 42
f 42 67 68
f 42 68 43
f 43 69 70
f 43 70 44
f 43 68 71
f 43 71 72
f 43 72 73
f 43 73 69
f 44 70 74
f 44 74 75
f 44 75 57
f 44 57 47
f 50 62 51
f 50 55 76
f 50 76 77
f 50 77 78
f 50 78 63
f 57 75 79
f 57 79 80
f 57 80 81
f 57 81 82
f 57 82 83
f 57 83 84
f 57 84 58
f 59 85 60
f 60 86 61
f 60 85 87
f 60 87 88
f 60 88 89
f 60 89 90
f 60 90 91
f 60 91 92
f 60 92 86
f 61 86 93
f 61 93 94
f 61 94 95
f 61 95 96
f 61 96 97
f 61 97 98
f 61 98 78
f 63 99 64
f 63 78 99
f 64 99 100
f 64 100 65
f 65 100 66
f 66 100 101
f 66 101 102
f 66 102 67
f 67 102 68
f 68 102 71
f 69 103 104
f 69 104 105
f 69 105 70
f 69 73 106
f 69 106 103
f 70 105 107
f 70 107 75
f 70 75 74
f 71 102 108
f 71 108 109
f 71 109 72
f 72 109 106
f 72 106 73
f 75 107 110
f 75 110 90
f 75 90 79
f 78 98 99
f 86 92 93
f 90 110 91
f 91 110 107
f 91 107 92
f 92 107 111
f 92 111 93
f 93 111 94
f 94 111 95
f 95 112 96
f 95 111 112
f 96 112 97
f 97 112 98
f 98 112 113
f 98 113 101
f 98 101 99
f 99 101 100
f 101 113 102
f 102 113 108
f 103 113 104
f 103 106 113
f 104 113 112
f 104 112 111
f 104 111 107
f 104 107 105
f 106 109 113
f 108 113 109

