# https://github.com/mikedh/trimesh
v 0.11667068 -0.11480618 -0.00328645
v 0.12201303 -0.11408905 -0.00993379
v 0.12201303 -0.11408905 -0.00328645
v 0.12200381 -0.11408905 0.00074943
v 0.11667068 -0.11478376 0.00074943
v 0.10210143 -0.11467172 0.00074943
v 0.10210143 -0.11467172 0.00003721
v 0.10210143 -0.11444762 -0.14327612
v 0.11667068 -0.11444762 -0.14996302
v 0.12136716 -0.11386495 -0.14996302
v 0.12534394 -0.11155671 -0.00993379
v 0.12535317 -0.11153430 -0.00328645
v 0.12327712 -0.11310301 0.00074943
v 0.12718931 -0.09873809 0.15660565
v 0.12707859 -0.09873809 0.15771353
v 0.12681102 -0.09873809 0.16020628
v 0.12333248 -0.09873809 0.16285731
v 0.12125643 -0.09873809 0.16364865
v 0.11667068 -0.09873809 0.16527091
v 0.11174352 -0.09873809 0.16523135
v 0.10210143 -0.10088947 0.00074943
v 0.10343010 0.02059605 0.16503351
v 0.10343010 0.09927814 0.20044639
v 0.10343010 0.10331197 0.20210822
v 0.10210143 -0.11442521 -0.14996302
v 0.10210143 -0.11440279 -0.15118961
v 0.11667068 -0.11429075 -0.15664992
v 0.12123798 -0.11379772 -0.15664992
v 0.12469805 -0.11007763 -0.14996302
v 0.12501178 -0.11115332 -0.06995762
v 0.12503946 -0.11122055 -0.06331029
v 0.12711550 -0.10821759 -0.00993379
v 0.12700478 -0.10781420 -0.06995762
v 0.12702323 -0.10788144 -0.06331029
v 0.12710627 -0.10819519 -0.01662069
v 0.12709705 -0.10819519 -0.00328645
v 0.12708782 -0.10817277 0.00074943
v 0.12641425 -0.10945015 0.00074943
v 0.12533472 -0.11148947 0.00074943
v 0.12735540 -0.09873809 0.15201582
v 0.19608642 0.08518214 0.15660565
v 0.19504378 0.08569758 0.16131418
v 0.12053673 0.09930055 0.20036726
v 0.11667991 0.10331197 0.20187082
v 0.11000887 0.10331197 0.20222692
v 0.10343010 0.10337920 0.20210822
v 0.10343010 0.10830944 0.20159385
v 0.10210143 0.02059605 -0.15625424
v 0.10210143 -0.11426834 -0.15664992
v 0.10210143 -0.11417869 -0.15736214
v 0.10210143 -0.11373049 -0.16052753
v 0.11667068 -0.11373049 -0.16052753
v 0.12073972 -0.11359603 -0.16036927
v 0.12491028 -0.10938292 -0.15621468
v 0.12669107 -0.10673852 -0.15368236
v 0.19624327 0.08515974 0.14995831
v 0.19624327 0.08520455 -0.14996302
v 0.12741076 -0.09873809 0.14995831
v 0.19608642 0.08970900 0.15660565
v 0.19504378 0.08856608 0.16131418
v 0.12085044 0.10331197 0.20072336
v 0.12060132 0.10723375 0.20060465
v 0.11667991 0.10792847 0.20127730
v 0.11000887 0.10830944 0.20159385
v 0.13919349 0.11371028 0.16068109
v 0.13859373 0.11400162 0.15664521
v 0.10343010 0.10846630 0.19660834
v 0.10210143 0.02059605 -0.16476125
v 0.10210143 -0.10996559 -0.16321812
v 0.11000887 -0.10996559 -0.16321812
v 0.11667068 -0.10996559 -0.16313899
v 0.12211454 -0.10996559 -0.16147715
v 0.19478543 0.08578722 -0.16100234
v 0.19588343 0.08527179 -0.15661036
v 0.19634477 0.09000033 0.14331098
v 0.19636322 0.09000033 -0.14331568
v 0.19588343 0.08979864 -0.15661036
v 0.19294927 0.09302570 0.15660565
v 0.19570811 0.09060541 0.14995831
v 0.19341985 0.09336185 0.14778210
v 0.19323531 0.09324980 0.15221366
v 0.18846501 0.09405657 0.16115590
v 0.17400650 0.10026419 0.16052282
v 0.14111267 0.11371028 0.16068109
v 0.13838152 0.11411366 0.14999788
v 0.14159248 0.11400162 0.15664521
v 0.13837229 0.11413608 0.14327141
v 0.10343010 0.10842149 -0.19661305
v 0.10343010 0.10833185 -0.20159855
v 0.10343010 0.10331197 -0.20179639
v 0.10210143 -0.10330976 -0.16523606
v 0.11000887 -0.10330976 -0.16519649
v 0.11667068 -0.10330976 -0.16503822
v 0.12308335 -0.10330976 -0.16246634
v 0.12011230 0.09981599 -0.20001585
v 0.12013998 0.10331197 -0.20009499
v 0.19478543 0.08865572 -0.16100234
v 0.19349366 0.09338427 0.13662407
v 0.19348444 0.09338427 0.14331098
v 0.19570811 0.09062781 -0.15020043
v 0.19346598 0.09338427 -0.14331568
v 0.19309691 0.09311534 -0.15661036
v 0.19328145 0.09329463 -0.15253490
v 0.18961837 0.09448236 0.15660565
v 0.14184160 0.11411366 0.14995831
v 0.14174011 0.11400162 0.15660565
v 0.15655847 0.10801810 0.15660565
v 0.14160171 0.11393439 0.15755526
v 0.14159248 0.11411366 0.14999788
v 0.14160171 0.11406885 -0.14331568
v 0.13827080 0.11406885 -0.14323655
v 0.14159248 0.11413608 0.14327141
v 0.13828002 0.11402403 -0.14992346
v 0.11000887 0.10828702 -0.20159855
v 0.11000887 0.10331197 -0.20199423
v 0.13847378 0.11391197 -0.15653121
v 0.13911045 0.11371028 -0.16064624
v 0.14110345 0.11371028 -0.16064624
v 0.11667991 0.10331197 -0.20112374
v 0.12008462 0.10671831 -0.20001585
v 0.18862188 0.09412380 -0.16104190
v 0.14186006 0.11411366 0.14331098
v 0.19340140 0.09336185 -0.14810334
v 0.14177701 0.11404644 -0.14996302
v 0.14180470 0.11406885 -0.14331568
v 0.14187851 0.11406885 -0.11664722
v 0.18976600 0.09454960 -0.15661036
v 0.14999816 0.11064010 -0.15661036
v 0.14160171 0.11404644 -0.14996302
v 0.14160171 0.11395680 -0.15645208
v 0.11667991 0.10752509 -0.20084677
v 0.14160171 0.11391197 -0.15728300
v 0.14160171 0.11357583 -0.16017143
v 0.17405263 0.10026419 -0.16040883
v 0.14504333 0.11261219 -0.15661036
v 0.14170320 0.11393439 -0.15661036
f 1 2 3
f 1 3 4
f 1 4 5
f 1 5 6
f 1 6 7
f 1 7 8
f 1 8 9
f 1 9 10
f 1 10 2
f 2 11 3
f 2 10 11
f 3 11 4
f 4 11 12
f 4 12 13
f 4 13 14
f 4 14 15
f 4 15 16
f 4 16 5
f 5 16 17
f 5 17 18
f 5 18 19
f 5 19 20
f 5 20 6
f 6 21 48
f 6 48 68
f 6 68 91
f 6 91 69
f 6 69 51
f 6 51 50
f 6 50 49
f 6 49 26
f 6 26 25
f 6 25 8
f 6 8 7
f 6 20 22
f 6 22 23
f 6 23 24
f 6 24 46
f 6 46 21
f 8 25 9
f 9 25 26
f 9 26 27
f 9 27 28
f 9 28 10
f 10 28 29
f 10 29 30
f 10 30 31
f 10 31 11
f 11 32 12
f 11 31 33
f 11 33 34
f 11 34 35
f 11 35 32
f 12 32 36
f 12 36 37
f 12 37 38
f 12 38 39
f 12 39 13
f 13 39 14
f 14 39 40
f 14 40 41
f 14 41 15
f 15 41 16
f 16 41 42
f 16 42 17
f 17 43 18
f 17 42 43
f 18 43 19
f 19 43 44
f 19 44 45
f 19 45 20
f 20 45 24
f 20 24 23
f 20 23 22
f 21 46 47
f 21 47 48
f 24 45 46
f 26 49 27
f 27 49 50
f 27 50 51
f 27 51 52
f 27 52 53
f 27 53 28
f 28 54 29
f 28 53 54
f 29 54 55
f 29 55 30
f 30 33 31
f 30 55 33
f 32 56 36
f 32 35 57
f 32 57 56
f 33 55 57
f 33 57 34
f 34 57 35
f 36 56 37
f 37 56 58
f 37 58 40
f 37 40 38
f 38 40 39
f 40 58 41
f 41 59 60
f 41 60 42
f 41 58 56
f 41 56 59
f 42 60 61
f 42 61 43
f 43 61 44
f 44 61 62
f 44 62 63
f 44 63 64
f 44 64 45
f 45 64 47
f 45 47 46
f 47 65 66
f 47 66 67
f 47 67 48
f 47 64 84
f 47 84 65
f 48 67 68
f 51 69 70
f 51 70 52
f 52 70 71
f 52 71 53
f 53 71 72
f 53 72 54
f 54 72 73
f 54 73 55
f 55 73 74
f 55 74 57
f 56 75 59
f 56 57 76
f 56 76 75
f 57 74 77
f 57 77 76
f 59 78 60
f 59 75 79
f 59 79 80
f 59 80 81
f 59 81 78
f 60 82 62
f 60 62 61
f 60 78 82
f 62 82 83
f 62 83 84
f 62 84 63
f 63 84 64
f 65 84 86
f 65 86 66
f 66 85 67
f 66 86 109
f 66 109 85
f 67 85 87
f 67 87 88
f 67 88 68
f 68 88 89
f 68 89 90
f 68 90 91
f 69 91 70
f 70 91 92
f 70 92 71
f 71 92 93
f 71 93 72
f 72 93 94
f 72 94 73
f 73 94 95
f 73 95 96
f 73 96 97
f 73 97 77
f 73 77 74
f 75 98 99
f 75 99 80
f 75 80 79
f 75 76 98
f 76 77 100
f 76 100 101
f 76 101 98
f 77 102 103
f 77 103 100
f 77 97 102
f 78 81 104
f 78 104 82
f 80 99 105
f 80 105 106
f 80 106 107
f 80 107 81
f 81 107 104
f 82 104 83
f 83 104 84
f 84 104 107
f 84 107 108
f 84 108 86
f 85 109 112
f 85 112 87
f 86 106 105
f 86 105 109
f 86 108 106
f 87 110 111
f 87 111 88
f 87 112 125
f 87 125 110
f 88 111 113
f 88 113 89
f 89 114 115
f 89 115 90
f 89 113 116
f 89 116 117
f 89 117 118
f 89 118 114
f 90 115 91
f 91 115 92
f 92 115 93
f 93 115 119
f 93 119 95
f 93 95 94
f 95 119 96
f 96 119 120
f 96 120 97
f 97 120 121
f 97 121 102
f 98 122 99
f 98 101 122
f 99 122 105
f 100 103 123
f 100 123 101
f 101 123 124
f 101 124 125
f 101 125 126
f 101 126 122
f 102 127 103
f 102 121 127
f 103 127 128
f 103 128 123
f 105 122 112
f 105 112 109
f 106 108 107
f 110 129 111
f 110 125 124
f 110 124 129
f 111 129 113
f 112 122 126
f 112 126 125
f 113 129 130
f 113 130 116
f 114 131 115
f 114 118 131
f 115 131 119
f 116 130 117
f 117 132 118
f 117 130 132
f 118 132 133
f 118 133 127
f 118 127 134
f 118 134 121
f 118 121 120
f 118 120 131
f 119 131 120
f 121 134 127
f 123 128 124
f 124 128 135
f 124 135 136
f 124 136 130
f 124 130 129
f 127 133 128
f 128 133 132
f 128 132 135
f 130 136 132
f 132 136 135

