# https://github.com/mikedh/trimesh
v 0.12754009 -0.09874893 0.00076878
v 0.12751162 -0.10333266 0.00076878
v 0.10209472 -0.10333025 -0.16525314
v 0.10209472 -0.09786919 -0.16505892
v 0.10209472 -0.09786919 -0.15395627
v 0.12751162 -0.09874893 0.03206985
v 0.12751162 -0.10333266 0.03666629
v 0.12705623 -0.10817358 0.00076878
v 0.10209472 -0.10999554 -0.16324625
v 0.10209472 -0.10876007 -0.16363468
v 0.12708470 -0.10803177 0.03666629
v 0.02331083 -0.10333025 -0.16525314
v -0.01593879 -0.10999554 -0.16353757
v 0.07662088 -0.09786919 -0.16505892
v -0.14567034 -0.09054772 -0.15162568
v -0.14732116 -0.09054772 0.00086589
v 0.12739778 -0.09874893 0.14995868
v 0.12736931 -0.10333266 0.14995868
v 0.12697084 -0.10778420 0.14995868
v 0.12640159 -0.10944992 0.00076878
v 0.10209472 -0.11372839 -0.16059197
v -0.01593879 -0.11044261 -0.16324625
v -0.00335842 -0.11387261 -0.16088328
v -0.01593879 -0.11387982 -0.16091566
v 0.12532002 -0.11150984 0.00076878
v -0.01593879 -0.10333025 -0.16522077
v -0.14996816 -0.11478599 -0.15162568
v -0.15147667 -0.11462255 -0.15162568
v -0.15620142 -0.11407211 -0.15162568
v -0.15873458 -0.11332939 -0.15162568
v 0.03665969 -0.09786919 -0.16499418
v -0.16237776 -0.09054772 -0.15162568
v 0.11663899 -0.09874893 0.16530172
v 0.12122144 -0.09874893 0.16365088
v 0.12329919 -0.09874893 0.16287402
v 0.12680007 -0.09874893 0.16021974
v 0.12717007 -0.09874893 0.15662675
v 0.12734085 -0.09874893 0.15203031
v -0.16320317 -0.09054772 0.00086589
v 0.12714162 -0.10333266 0.15662675
v 0.12688545 -0.10749576 0.15662675
v 0.12506386 -0.11111804 0.14995868
v 0.10209472 -0.11428363 -0.15664291
v -0.00335842 -0.11448795 -0.15664291
v -0.01001862 -0.11449755 -0.15664291
v -0.01593879 -0.11450236 -0.15664291
v 0.12327073 -0.11311787 0.00076878
v 0.12173376 -0.11406490 0.14995868
v -0.01593879 -0.09786919 -0.16489707
v -0.15953152 -0.11306499 -0.15162568
v -0.15995846 -0.11223574 -0.15162568
v -0.16123927 -0.10973115 -0.15162568
v -0.16223545 -0.10489262 -0.15162568
v -0.16252007 -0.10332786 -0.15162568
v -0.16249162 -0.09666978 -0.15162568
v -0.09828047 -0.11473552 -0.15162568
v -0.14996816 -0.11481965 -0.14997485
v -0.15625836 -0.11408653 -0.14997485
v -0.15958846 -0.11309865 -0.14997485
v -0.16246315 -0.09054772 -0.15010433
v -0.01209637 -0.09874893 0.16488091
v -0.14996816 -0.09899890 0.16539882
v -0.14996816 -0.10333266 0.16543119
v 0.11663899 -0.10333266 0.16533408
v 0.12329919 -0.10333266 0.16290638
v 0.12680007 -0.10333266 0.16021974
v -0.16320317 -0.09054772 -0.00386002
v -0.16323164 -0.09666978 0.00086589
v -0.16308932 -0.09899890 0.14995868
v -0.16286162 -0.09899890 0.15662675
v -0.16129619 -0.09899890 0.16183820
v -0.15662836 -0.09899890 0.16458958
v -0.01593879 -0.09874893 0.16484854
v 0.12674314 -0.10701504 0.16012263
v 0.12495002 -0.11082960 0.15662675
v 0.12161992 -0.11403126 0.15662675
v 0.12198992 -0.11409134 0.00076878
v 0.10209472 -0.11444228 -0.14997485
v -0.08330926 -0.11471629 -0.15162568
v -0.09162028 -0.11472831 -0.15162568
v 0.12198992 -0.11409134 0.00332595
v 0.11663899 -0.11474993 0.14995868
v 0.11663899 -0.11481724 0.09664652
v 0.12176223 -0.11409855 0.09664652
v -0.16126773 -0.10976479 -0.14997485
v -0.16260546 -0.10332786 -0.14997485
v -0.16257700 -0.09666978 -0.14997485
v -0.09662966 -0.11476436 -0.14997485
v -0.14996816 -0.11502155 -0.09663032
v -0.14996816 -0.11503837 -0.08996225
v -0.15640067 -0.11421393 -0.08996225
v -0.15978769 -0.11321882 -0.08329418
v -0.16297548 -0.09054772 -0.05720456
v -0.15662836 -0.10333266 0.16458958
v -0.14996816 -0.10999554 0.16378036
v 0.11663899 -0.10999795 0.16374799
v 0.12327073 -0.10954126 0.16157925
v -0.16317471 -0.09054772 -0.01719616
v -0.16320317 -0.09666978 -0.01001018
v -0.16314625 -0.10332786 -0.02334632
v -0.16320317 -0.09899890 0.00099536
v -0.16314625 -0.10333266 0.00999402
v -0.16303240 -0.10333266 0.14995868
v -0.16280470 -0.10333266 0.15662675
v -0.16129619 -0.10333266 0.16183820
v 0.12102220 -0.11377165 0.16070528
v 0.11663899 -0.11468744 0.15662675
v 0.11663899 -0.11480281 0.00076878
v 0.11663899 -0.11481965 0.08997845
v -0.08330926 -0.11474513 -0.14997485
v -0.08994099 -0.11475475 -0.14997485
v -0.14996816 -0.11510087 0.14995868
v -0.16143850 -0.10988498 -0.08329418
v -0.16297548 -0.10332786 -0.08329418
v -0.16297548 -0.09666978 -0.07662612
v -0.15642912 -0.11420912 -0.08329418
v -0.16149544 -0.10975758 -0.03668245
v -0.15608758 -0.11422834 0.14995868
v -0.15941768 -0.11297365 0.14995868
v -0.16146697 -0.10963981 0.14995868
v -0.16081233 -0.10858221 0.16119082
v -0.15699837 -0.11048348 0.16222663
v -0.15503447 -0.11381732 0.16070528
v -0.14996816 -0.11403606 0.16102897
v 0.11663899 -0.11397356 0.16106133
v -0.16314625 -0.10333266 0.00086589
v -0.16152389 -0.10963500 -0.01664588
v -0.16135312 -0.10959173 0.15662675
v -0.14996816 -0.11493502 0.15662675
v -0.15600219 -0.11415384 0.15662675
v -0.15933229 -0.11292317 0.15662675
f 1 2 3
f 1 3 4
f 1 4 5
f 1 5 6
f 1 6 7
f 1 7 2
f 2 8 9
f 2 9 10
f 2 10 3
f 2 7 11
f 2 11 8
f 3 12 14
f 3 14 4
f 3 10 13
f 3 13 12
f 4 14 32
f 4 32 15
f 4 15 5
f 5 15 16
f 5 16 17
f 5 17 6
f 6 17 7
f 7 17 18
f 7 18 19
f 7 19 11
f 8 20 21
f 8 21 9
f 8 11 20
f 9 22 13
f 9 13 10
f 9 21 23
f 9 23 24
f 9 24 22
f 11 19 25
f 11 25 20
f 12 13 26
f 12 26 14
f 13 22 27
f 13 27 28
f 13 28 29
f 13 29 30
f 13 30 26
f 14 26 31
f 14 31 32
f 15 32 60
f 15 60 93
f 15 93 98
f 15 98 67
f 15 67 39
f 15 39 16
f 16 33 34
f 16 34 35
f 16 35 36
f 16 36 37
f 16 37 38
f 16 38 17
f 16 39 33
f 17 38 18
f 18 38 40
f 18 40 41
f 18 41 19
f 19 41 42
f 19 42 25
f 20 25 21
f 21 43 44
f 21 44 23
f 21 25 43
f 22 24 27
f 23 44 45
f 23 45 24
f 24 45 46
f 24 46 27
f 25 47 43
f 25 42 48
f 25 48 47
f 26 49 31
f 26 30 50
f 26 50 51
f 26 51 52
f 26 52 53
f 26 53 54
f 26 54 55
f 26 55 32
f 26 32 49
f 27 46 45
f 27 45 56
f 27 56 57
f 27 57 28
f 28 57 29
f 29 57 58
f 29 58 30
f 30 58 59
f 30 59 50
f 31 49 32
f 32 55 60
f 33 61 62
f 33 62 63
f 33 63 64
f 33 64 34
f 33 39 61
f 34 65 35
f 34 64 65
f 35 65 36
f 36 66 37
f 36 65 66
f 37 66 40
f 37 40 38
f 39 67 68
f 39 68 69
f 39 69 70
f 39 70 71
f 39 71 72
f 39 72 62
f 39 62 73
f 39 73 61
f 40 66 74
f 40 74 41
f 41 74 75
f 41 75 42
f 42 75 76
f 42 76 48
f 43 47 77
f 43 77 78
f 43 78 44
f 44 78 79
f 44 79 80
f 44 80 45
f 45 80 56
f 47 48 81
f 47 81 77
f 48 82 83
f 48 83 84
f 48 84 81
f 48 76 82
f 50 59 51
f 51 59 52
f 52 59 85
f 52 85 86
f 52 86 53
f 53 86 54
f 54 86 87
f 54 87 55
f 55 87 60
f 56 80 88
f 56 88 57
f 57 88 89
f 57 89 58
f 58 89 90
f 58 90 91
f 58 91 59
f 59 91 92
f 59 92 85
f 60 87 93
f 61 73 62
f 62 72 63
f 63 72 94
f 63 94 95
f 63 95 96
f 63 96 64
f 64 96 97
f 64 97 65
f 65 97 74
f 65 74 66
f 67 98 68
f 68 98 99
f 68 99 100
f 68 100 101
f 68 101 102
f 68 102 69
f 69 102 103
f 69 103 104
f 69 104 70
f 70 104 105
f 70 105 71
f 71 105 94
f 71 94 72
f 74 97 106
f 74 106 75
f 75 106 76
f 76 106 107
f 76 107 82
f 77 108 78
f 77 81 109
f 77 109 108
f 78 108 89
f 78 89 110
f 78 110 79
f 79 110 111
f 79 111 80
f 80 111 88
f 81 84 109
f 82 107 112
f 82 112 83
f 83 109 84
f 83 112 109
f 85 92 113
f 85 113 114
f 85 114 86
f 86 114 87
f 87 114 115
f 87 115 93
f 88 111 89
f 89 111 110
f 89 108 90
f 90 108 112
f 90 112 91
f 91 116 92
f 91 112 116
f 92 117 113
f 92 116 118
f 92 118 119
f 92 119 120
f 92 120 117
f 93 115 98
f 94 105 121
f 94 121 122
f 94 122 95
f 95 122 123
f 95 123 124
f 95 124 125
f 95 125 96
f 96 125 106
f 96 106 97
f 98 115 114
f 98 114 99
f 99 114 100
f 100 114 113
f 100 113 117
f 100 117 126
f 100 126 101
f 101 126 102
f 102 120 103
f 102 126 117
f 102 117 127
f 102 127 120
f 103 120 128
f 103 128 104
f 104 128 121
f 104 121 105
f 106 125 107
f 107 125 129
f 107 129 112
f 108 109 112
f 112 129 130
f 112 130 118
f 112 118 116
f 117 120 127
f 118 130 131
f 118 131 119
f 119 131 120
f 120 131 128
f 121 128 131
f 121 131 123
f 121 123 122
f 123 131 130
f 123 130 129
f 123 129 124
f 124 129 125

