# https://github.com/mikedh/trimesh
v -0.16321137 -0.09899394 0.00092111
v -0.14199005 -0.09899394 0.00092111
v -0.16321137 -0.09899394 0.00997662
v -0.19664384 0.08998558 -0.10998490
v -0.19657917 0.08998558 -0.13663945
v -0.19656301 0.08998558 -0.14329510
v -0.16248927 -0.09051034 -0.14991875
v -0.16242999 -0.09051034 -0.15158265
v -0.14570297 -0.09051034 -0.15158265
v -0.14579458 -0.06328481 -0.15158265
v -0.14584848 -0.05661494 -0.15158265
v -0.14604248 -0.03664435 -0.15158265
v -0.14679153 0.02061508 -0.15158265
v -0.14189844 0.02059558 0.15531275
v -0.14189844 -0.09899394 0.15304089
v -0.16311437 -0.09899394 0.14993706
v -0.19695101 0.09665545 -0.14998274
v -0.19652529 0.08998558 0.03663118
v -0.19641751 0.08998558 -0.14998274
v -0.19518886 0.08965403 -0.15628638
v -0.19445058 0.09166280 -0.16079814
v -0.19036583 0.08965403 -0.16108613
v -0.18838811 0.08470039 -0.16092615
v -0.16454242 0.05882053 -0.16115012
v -0.16454242 0.06574394 -0.16156611
v -0.16454242 0.06872782 -0.16118212
v -0.14814951 0.04998589 -0.13030379
v -0.14765913 0.04971285 0.14798515
v -0.14189844 0.02059558 0.16488025
v -0.14189844 -0.09899394 0.16513624
v -0.16287726 -0.09899394 0.15659270
v -0.19618040 0.08998558 0.14996905
v -0.19626663 0.08998558 0.14331341
v -0.19638518 0.08998558 0.10997121
v -0.19640135 0.08998558 0.10328357
v -0.19648757 0.08998558 0.06328574
v -0.19649835 0.08998558 0.05666209
v -0.19651990 0.08998558 0.04328682
v -0.19407874 0.10024390 -0.14998274
v -0.19396019 0.10020491 -0.15484648
v -0.19550679 0.09718201 -0.15689435
v -0.19603491 0.09649943 0.14331341
v -0.19445058 0.09530977 -0.16079814
v -0.18999399 0.09491972 -0.16067016
v -0.18496079 0.08998558 -0.16076615
v -0.18655051 0.09345703 -0.16006219
v -0.16683269 0.07317440 -0.15907025
v -0.16454242 0.07112663 -0.15772631
v -0.15074155 0.05663625 -0.13030379
v -0.15071461 0.05663625 -0.12326417
v -0.15069306 0.05663625 -0.11664054
v -0.15044518 0.05663625 -0.00995830
v -0.14847285 0.05193614 0.14798515
v -0.16454242 0.06866931 0.16094446
v -0.17112761 0.07545620 0.16104045
v -0.18445425 0.08887393 0.16088047
v -0.14334266 0.02059558 0.16497624
v -0.14189844 -0.09846737 0.16513624
v -0.15034817 0.05663625 0.14798515
v -0.15000868 -0.09899394 0.16532822
v -0.16133605 -0.09899394 0.16180842
v -0.19398713 0.09193583 0.16049647
v -0.19482241 0.08982956 0.15633671
v -0.19593251 0.09638241 0.14996905
v -0.19507568 0.09542679 0.15662470
v -0.19294709 0.10024390 -0.14998274
v -0.19339975 0.10000988 0.01663226
v -0.19335663 0.10000988 0.02146400
v -0.19300636 0.10020491 -0.15484648
v -0.18629185 0.09373007 -0.15663838
v -0.16454242 0.07124365 -0.15699036
v -0.15320426 0.06012720 -0.13030379
v -0.15085472 0.05681177 -0.13030379
v -0.15317193 0.06016621 -0.11664054
v -0.15301026 0.06034173 -0.00995830
v -0.15295638 0.06041974 0.03663118
v -0.15038050 0.05663625 0.03663118
v -0.16454242 0.07153618 0.15796862
v -0.16668719 0.07331092 0.15988851
v -0.18000844 0.08665065 0.15992053
v -0.18668523 0.09330101 0.15992053
v -0.19113104 0.09413962 0.16049647
v -0.19398713 0.09413962 0.16049647
v -0.15000868 0.02059558 0.16526423
v -0.14604248 0.02059558 0.16510425
v -0.15000868 0.00329683 0.16532822
v -0.15108105 0.05772839 0.14798515
v -0.15666391 -0.09899394 0.16452827
v -0.18999399 0.09706500 0.14996905
v -0.18934194 0.09527076 0.15726466
v -0.18581762 0.09415912 0.00328898
v -0.18581223 0.09415912 -0.00330266
v -0.18581223 0.09415912 -0.00995830
v -0.18961678 0.09724052 -0.14998274
v -0.19330814 0.10000988 0.02146400
v -0.19328120 0.10000988 0.01663226
v -0.18999399 0.09720151 0.14331341
v -0.18595774 0.09404210 0.13662577
v -0.16454242 0.07138017 -0.15606241
v -0.18611401 0.09390559 -0.14998274
v -0.16454242 0.07167270 -0.15199862
v -0.16648780 0.07350594 -0.15465448
v -0.16454242 0.07177022 -0.14998274
v -0.15653458 0.06361816 -0.13030379
v -0.15635135 0.06350114 -0.11664054
v -0.15947150 0.06718712 -0.00995830
v -0.15614119 0.06367667 -0.00995830
v -0.15610886 0.06375468 0.03663118
v -0.15294560 0.06041974 0.14798515
v -0.16454242 0.07173121 0.15672069
v -0.18622718 0.09376907 0.15550475
v -0.18599546 0.09400310 0.14996905
v -0.18248732 0.09078518 0.00328898
v -0.18247653 0.09078518 -0.00330266
v -0.15946072 0.06718712 0.14798515
v -0.18247653 0.09078518 -0.00995830
v -0.18248732 0.09078518 -0.01664594
v -0.18590385 0.09408111 -0.06329942
v -0.18596852 0.09402260 0.14331341
v -0.18256814 0.09068767 -0.06329942
v -0.16454242 0.07182872 -0.14329510
v -0.16454242 0.07180922 -0.14633493
v -0.15971401 0.06693359 -0.13030379
v -0.15968705 0.06697260 -0.11664054
v -0.17922167 0.08745025 -0.00995830
v -0.15943917 0.06720662 0.03663118
v -0.15610886 0.06375468 0.04328682
v -0.15710579 0.06476881 0.14798515
v -0.16631535 0.07368146 0.15547276
v -0.16454242 0.07225778 0.14996905
v -0.15943917 0.06720662 0.04994246
f 1 2 15
f 1 15 30
f 1 30 60
f 1 60 88
f 1 88 61
f 1 61 31
f 1 31 16
f 1 16 3
f 1 3 4
f 1 4 5
f 1 5 6
f 1 6 7
f 1 7 8
f 1 8 9
f 1 9 2
f 2 9 10
f 2 10 11
f 2 11 12
f 2 12 13
f 2 13 14
f 2 14 15
f 3 16 4
f 4 17 5
f 4 16 18
f 4 18 17
f 5 17 6
f 6 17 19
f 6 19 7
f 7 19 8
f 8 19 20
f 8 20 21
f 8 21 22
f 8 22 23
f 8 23 24
f 8 24 9
f 9 24 25
f 9 25 10
f 10 25 11
f 11 25 12
f 12 25 13
f 13 25 26
f 13 26 27
f 13 27 14
f 14 28 29
f 14 29 58
f 14 58 30
f 14 30 15
f 14 27 28
f 16 31 32
f 16 32 33
f 16 33 34
f 16 34 35
f 16 35 36
f 16 36 37
f 16 37 38
f 16 38 18
f 17 39 40
f 17 40 41
f 17 41 21
f 17 21 20
f 17 20 19
f 17 18 38
f 17 38 37
f 17 37 36
f 17 36 35
f 17 35 34
f 17 34 42
f 17 42 39
f 21 41 43
f 21 43 22
f 22 25 24
f 22 24 23
f 22 43 44
f 22 44 25
f 25 44 45
f 25 45 26
f 26 45 46
f 26 46 47
f 26 47 48
f 26 48 49
f 26 49 27
f 27 49 50
f 27 50 51
f 27 51 52
f 27 52 53
f 27 53 28
f 28 53 29
f 29 54 55
f 29 55 56
f 29 56 57
f 29 57 58
f 29 53 59
f 29 59 54
f 30 58 86
f 30 86 60
f 31 61 62
f 31 62 63
f 31 63 32
f 32 64 42
f 32 42 33
f 32 63 65
f 32 65 64
f 33 42 34
f 39 66 69
f 39 69 40
f 39 42 67
f 39 67 68
f 39 68 95
f 39 95 66
f 40 43 41
f 40 69 43
f 42 64 68
f 42 68 67
f 43 69 44
f 44 46 45
f 44 69 46
f 46 70 71
f 46 71 48
f 46 48 47
f 46 69 70
f 48 71 72
f 48 72 73
f 48 73 49
f 49 73 50
f 50 73 51
f 51 73 74
f 51 74 75
f 51 75 52
f 52 75 76
f 52 76 77
f 52 77 53
f 53 77 59
f 54 78 79
f 54 79 55
f 54 59 78
f 55 79 80
f 55 80 81
f 55 81 56
f 56 81 82
f 56 82 83
f 56 83 84
f 56 84 85
f 56 85 57
f 57 85 86
f 57 86 58
f 59 77 87
f 59 87 78
f 60 86 83
f 60 83 62
f 60 62 88
f 61 88 62
f 62 83 65
f 62 65 63
f 64 89 68
f 64 65 89
f 65 83 90
f 65 90 89
f 66 91 92
f 66 92 93
f 66 93 94
f 66 94 69
f 66 95 96
f 66 96 97
f 66 97 98
f 66 98 91
f 68 89 95
f 69 94 70
f 70 99 71
f 70 94 100
f 70 100 101
f 70 101 102
f 70 102 99
f 71 99 72
f 72 74 73
f 72 99 101
f 72 101 103
f 72 103 104
f 72 104 105
f 72 105 74
f 74 105 106
f 74 106 107
f 74 107 75
f 75 107 76
f 76 108 109
f 76 109 87
f 76 87 77
f 76 107 108
f 78 110 111
f 78 111 79
f 78 87 109
f 78 109 110
f 79 111 80
f 80 111 81
f 81 111 89
f 81 89 90
f 81 90 82
f 82 90 83
f 83 86 84
f 84 86 85
f 89 112 97
f 89 97 95
f 89 111 112
f 91 113 114
f 91 114 92
f 91 98 115
f 91 115 113
f 92 114 116
f 92 116 93
f 93 116 117
f 93 117 118
f 93 118 94
f 94 118 100
f 95 97 96
f 97 112 119
f 97 119 98
f 98 119 115
f 99 102 101
f 100 118 120
f 100 120 121
f 100 121 122
f 100 122 103
f 100 103 101
f 103 122 104
f 104 122 123
f 104 123 105
f 105 123 124
f 105 124 106
f 106 124 120
f 106 120 117
f 106 117 125
f 106 125 126
f 106 126 108
f 106 108 107
f 108 126 131
f 108 131 127
f 108 127 109
f 109 127 128
f 109 128 110
f 110 128 129
f 110 129 111
f 111 129 112
f 112 129 130
f 112 130 115
f 112 115 119
f 113 115 114
f 114 115 131
f 114 131 126
f 114 126 116
f 115 128 131
f 115 130 129
f 115 129 128
f 116 126 125
f 116 125 117
f 117 120 118
f 120 124 121
f 121 124 123
f 121 123 122
f 127 131 128

