# https://github.com/mikedh/trimesh
v -0.13662633 0.10888411 0.19666295
v -0.03000540 0.10886683 0.19666295
v -0.13662633 0.10715637 0.19293046
v -0.14331473 0.10881500 0.19666295
v -0.14331473 0.10839170 0.20162899
v -0.01668107 0.10844353 0.20160253
v 0.00996760 0.10845218 0.20159724
v -0.03000540 0.10712181 0.19294635
v 0.02331817 0.10884092 0.19666295
v -0.14331473 0.10709590 0.19299400
v -0.16453400 0.07225603 0.14804537
v -0.14648844 0.10820165 0.19940010
v -0.14648844 0.10694040 0.19312106
v -0.14714416 0.10690584 0.19314753
v -0.14837693 0.10770061 0.19666295
v -0.14331473 0.10332079 0.20205255
v 0.10342157 0.10332079 0.20213196
v 0.10331665 0.10832260 0.20165019
v 0.10342157 0.10832260 0.20165019
v -0.01004513 0.10844353 0.20160782
v -0.14845561 0.10780427 0.20108898
v 0.03664251 0.10842626 0.20158136
v 0.06995335 0.10706998 0.19298871
v 0.02995411 0.10883228 0.19666295
v -0.16453400 0.07225603 0.15000427
v -0.15370141 0.10085876 0.19270281
v 0.07664175 0.10704406 0.19299929
v 0.10342157 0.10684538 0.19317400
v 0.10342157 0.06037782 0.15972990
v 0.10342157 0.05667182 0.15814161
v 0.10342157 0.05659407 0.15812043
v 0.10342157 0.05000274 0.15676509
v -0.16377336 0.07151310 0.14804537
v -0.16453400 0.05650768 0.14804537
v -0.14331473 0.09935563 0.20042191
v 0.10331665 0.09923468 0.20047483
v -0.14903265 0.10332079 0.20109959
v -0.14800972 0.09941610 0.20037425
v 0.10342157 0.09923468 0.20047483
v 0.10342157 0.10850401 0.19665236
v 0.07664175 0.10865951 0.19666295
v 0.03664251 0.10881500 0.19666295
v -0.15370141 0.10085876 0.19476759
v -0.16453400 0.07173771 0.15677038
v 0.10342157 0.10847809 0.19659412
v 0.10342157 0.04333367 0.15672274
v -0.14764252 0.04974358 0.14804537
v -0.14845561 0.05196373 0.14804537
v -0.15034410 0.05667182 0.14804537
v -0.15107851 0.05776029 0.14804537
v -0.15291455 0.06043829 0.14804537
v -0.15611448 0.06377283 0.14804537
v -0.15708495 0.06477492 0.14804537
v -0.15944557 0.06720239 0.14804537
v -0.16453400 0.05641266 0.14994602
v -0.16267173 0.02063117 0.14804537
v -0.14997690 0.02063117 0.16534715
v -0.15388502 0.09666035 0.19481524
v -0.15370141 0.09250513 0.19387286
v -0.16094062 0.02063117 0.16128113
v -0.15839641 0.02063117 0.16288000
v -0.15666529 0.02063117 0.16396004
v -0.15267848 0.02063117 0.16479654
v 0.10342157 0.02063117 0.16506126
v -0.16453400 0.07153901 0.15798807
v -0.16453400 0.06867097 0.16097935
v 0.10342157 0.02063117 0.15670155
v -0.14732777 0.04334231 0.14804537
v -0.14740645 0.04500958 0.14804537
v -0.16453400 0.05641266 0.15000427
v -0.16267173 0.02063117 0.15000427
v -0.14727530 0.02063117 0.14804537
v -0.16453400 0.06334089 0.16168879
v -0.16453400 0.05836501 0.16080993
v -0.16149143 0.02063117 0.15939636
v -0.14727530 0.02133954 0.14804537
v -0.16453400 0.05649040 0.15666980
v -0.16227829 0.02063117 0.15666980
f 1 2 3
f 1 3 4
f 1 4 5
f 1 5 6
f 1 6 7
f 1 7 2
f 2 8 3
f 2 7 9
f 2 9 8
f 3 10 4
f 3 8 11
f 3 11 10
f 4 12 5
f 4 10 13
f 4 13 14
f 4 14 15
f 4 15 12
f 5 16 17
f 5 17 18
f 5 18 19
f 5 19 20
f 5 20 6
f 5 12 21
f 5 21 16
f 6 20 7
f 7 22 9
f 7 20 19
f 7 19 22
f 8 9 23
f 8 23 11
f 9 22 24
f 9 24 23
f 10 11 13
f 11 25 43
f 11 43 26
f 11 26 15
f 11 15 14
f 11 14 13
f 11 23 27
f 11 27 28
f 11 28 29
f 11 29 30
f 11 30 31
f 11 31 32
f 11 32 33
f 11 33 54
f 11 54 53
f 11 53 52
f 11 52 51
f 11 51 50
f 11 50 49
f 11 49 48
f 11 48 47
f 11 47 69
f 11 69 68
f 11 68 76
f 11 76 72
f 11 72 56
f 11 56 34
f 11 34 55
f 11 55 70
f 11 70 77
f 11 77 74
f 11 74 73
f 11 73 66
f 11 66 65
f 11 65 44
f 11 44 25
f 12 15 21
f 15 26 21
f 16 35 36
f 16 36 17
f 16 21 37
f 16 37 38
f 16 38 35
f 17 36 39
f 17 39 64
f 17 64 67
f 17 67 46
f 17 46 32
f 17 32 31
f 17 31 30
f 17 30 29
f 17 29 28
f 17 28 45
f 17 45 40
f 17 40 19
f 17 19 18
f 19 40 41
f 19 41 42
f 19 42 24
f 19 24 22
f 21 26 43
f 21 43 37
f 23 24 42
f 23 42 41
f 23 41 27
f 25 44 43
f 27 41 40
f 27 40 45
f 27 45 28
f 32 46 47
f 32 47 48
f 32 48 49
f 32 49 50
f 32 50 51
f 32 51 52
f 32 52 53
f 32 53 54
f 32 54 33
f 34 56 55
f 35 38 57
f 35 57 36
f 36 57 39
f 37 43 58
f 37 58 59
f 37 59 38
f 38 59 60
f 38 60 61
f 38 61 62
f 38 62 63
f 38 63 57
f 39 57 64
f 43 44 65
f 43 65 66
f 43 66 58
f 46 67 68
f 46 68 69
f 46 69 47
f 55 56 71
f 55 71 70
f 56 72 67
f 56 67 64
f 56 64 57
f 56 57 63
f 56 63 62
f 56 62 61
f 56 61 60
f 56 60 75
f 56 75 78
f 56 78 71
f 58 60 59
f 58 66 73
f 58 73 74
f 58 74 60
f 60 74 75
f 67 72 76
f 67 76 68
f 70 71 77
f 71 78 74
f 71 74 77
f 74 78 75

