# https://github.com/mikedh/trimesh
v -0.01589593 0.02063116 0.16441426
v -0.01589593 0.02063116 0.15741818
v -0.14188612 0.02063116 0.16495115
v 0.11173275 0.02061946 0.16523986
v -0.14188612 0.02063116 0.15539953
v 0.11173275 0.02061946 0.15550332
v -0.14188612 -0.09899394 0.16519452
v 0.11173275 0.00998715 0.16527566
v 0.11173275 0.01664991 0.16525775
v -0.14188612 -0.09899394 0.15311005
v 0.11173275 0.01907379 0.15549378
v -0.01589593 -0.09899394 0.16490461
v 0.11173275 -0.09873633 0.16525537
v 0.11173275 -0.01494255 0.16529593
v 0.11173275 -0.00161704 0.16529117
v 0.11173275 0.00332440 0.16528877
v -0.01589593 -0.09899394 0.15519313
v 0.11173275 -0.09873633 0.15484834
f 1 2 5
f 1 5 3
f 1 3 4
f 1 4 6
f 1 6 2
f 2 6 5
f 3 5 10
f 3 10 7
f 3 7 8
f 3 8 9
f 3 9 4
f 4 9 8
f 4 8 16
f 4 16 15
f 4 15 14
f 4 14 13
f 4 13 18
f 4 18 11
f 4 11 6
f 5 6 10
f 6 11 10
f 7 12 13
f 7 13 14
f 7 14 15
f 7 15 16
f 7 16 8
f 7 10 17
f 7 17 12
f 10 11 18
f 10 18 17
f 12 17 18
f 12 18 13

